<svg xmlns="http://www.w3.org/2000/svg" width="16" height="16" viewBox="0 0 16 16"><g id="Layer_2" data-name="Layer 2"><g id="Layer_1-2" data-name="Layer 1"><circle cx="8" cy="8" r="8" fill="#ffa218"/><path d="M9.1,10a2.4,2.4,0,0,1-.2.9l-.6.7-.9.3H3.6V5H7.3a1.1,1.1,0,0,1,.7.3c.3.1.4.3.6.5a2.4,2.4,0,0,1,.2.9,1.7,1.7,0,0,1-.3,1l-.8.5h0l.5.2.5.4.3.4A1.5,1.5,0,0,1,9.1,10ZM7.2,7a.5.5,0,0,0-.3-.5,1.5,1.5,0,0,0-.8-.2H5.3V7.8h.9l.7-.2A.6.6,0,0,0,7.2,7Zm.2,2.8a.6.6,0,0,0-.3-.6L6.2,9H5.3v1.6H7l.3-.3C7.4,10.1,7.4,10,7.4,9.8Z"/><path d="M13.2,6.4V12H11.5V6.4h-2V5h5.7V6.4Z"/><path d="M3.2,10.9v.5H1.9v.5H1.4V10.4h.5v.5Z"/><path d="M2.5,9v.6h.7v.5H1.4V9.6h.7V9H1.4V8.5H3.2V9Z"/><path d="M1.4,8V6.8h.4v.7h.3V6.8h.4v.7h.3V6.7h.4V8Z"/></g></g></svg>