<svg xmlns="http://www.w3.org/2000/svg" width="16" height="16" viewBox="0 0 16 16"><circle cx="8" cy="8" r="8" fill="#ffa218"/><path d="M9.1 10a2.4 2.4 0 0 1-.2.9l-.6.7-.9.3H3.6V5h3.7a1.1 1.1 0 0 1 .7.3c.3.1.4.3.6.5a2.4 2.4 0 0 1 .2.9 1.7 1.7 0 0 1-.3 1l-.8.5.5.2.5.4.3.4a1.5 1.5 0 0 1 .1.8zM7.2 7a.5.5 0 0 0-.3-.5 1.5 1.5 0 0 0-.8-.2h-.8v1.5h.9l.7-.2a.6.6 0 0 0 .3-.6zm.2 2.8a.6.6 0 0 0-.3-.6L6.2 9h-.9v1.6H7l.3-.3c.1-.2.1-.3.1-.5zm5.8-3.4V12h-1.7V6.4h-2V5h5.7v1.4zm-10 4.5v.5H1.9v.5h-.5v-1.5h.5v.5zM2.5 9v.6h.7v.5H1.4v-.5h.7V9h-.7v-.5h1.8V9zM1.4 8V6.8h.4v.7h.3v-.7h.4v.7h.3v-.8h.4V8z"/></svg>