<svg xmlns="http://www.w3.org/2000/svg" width="253.7" height="51" viewBox="0 0 253.7 51"><path fill="#ffa218" d="M37.4 41.5a8.8 8.8 0 0 1-1.1 4.5 7.8 7.8 0 0 1-2.8 2.9 10.9 10.9 0 0 1-4 1.6 17.5 17.5 0 0 1-4.6.5H11.8V18.3h13.1a18.4 18.4 0 0 1 3.9.4 14 14 0 0 1 3.6 1.3 9.2 9.2 0 0 1 2.6 2.6 7.3 7.3 0 0 1 1 4.1 6.8 6.8 0 0 1-1.5 4.5 7.4 7.4 0 0 1-3.8 2.6 7.9 7.9 0 0 1 2.6.8 8.3 8.3 0 0 1 2.1 1.6 6.8 6.8 0 0 1 1.4 2.3 6.8 6.8 0 0 1 .6 3zm-9-13.7a2.8 2.8 0 0 0-1.3-2.5 7.4 7.4 0 0 0-3.7-.7h-3.9v6.7h4.2a5.8 5.8 0 0 0 3.5-.9 3.1 3.1 0 0 0 1.2-2.6zm1.1 13a3.1 3.1 0 0 0-1.6-2.9 9 9 0 0 0-4-.7h-4.4v7.4h6.3a4.8 4.8 0 0 0 1.8-.6 3 3 0 0 0 1.3-1.2 2.9 2.9 0 0 0 .6-2z"/><path d="M39.4 25h10.9a17 17 0 0 1 4 .4 10 10 0 0 1 3.3 1.4 6.2 6.2 0 0 1 2.3 2.5 8.4 8.4 0 0 1 .8 3.7 8.1 8.1 0 0 1-1.3 4.6 7.4 7.4 0 0 1-3.5 2.8L62.3 51h-8.5l-5-9.2H47V51h-7.6zM47 36.2h3.8l1.1-.5a3 3 0 0 0 .8-.8 3.3 3.3 0 0 0 .3-1.5 1.9 1.9 0 0 0-1-1.9 4.7 4.7 0 0 0-2.4-.5H47zM64.8 25h18.4v5.9H72.3V35h10.3v5.7H72.3v4.4h11.6V51H64.8zm53.9 26h-7.6l-4.6-16.2h-.1L102 51h-7.6l-7.9-26h8.1l4 16.5h.1l4.1-16.5h7.7l4.2 16.5h.1l4-16.5h7.9zm31.4-29v29h-7.9V22h-9.3v-6.8h120.7V22z"/><path d="M164.4 25h8.1l10.8 26h-8.4l-1.7-4.7h-9.7l-1.8 4.7h-8.2zm3.9 7.8l-3 8h5.9zm29.3-7.8a19.7 19.7 0 0 1 3.5.4 8.2 8.2 0 0 1 3 1.1 5.3 5.3 0 0 1 2.1 2.1 6.5 6.5 0 0 1 .7 3.3 5.4 5.4 0 0 1-3.6 5.4c3.2.6 4.7 2.6 4.7 6a6.9 6.9 0 0 1-3.2 6 11.5 11.5 0 0 1-3.4 1.3 25.6 25.6 0 0 1-3.9.3h-11.1V25zM194 35.3h2.6a3.2 3.2 0 0 0 2-.6 2.2 2.2 0 0 0 .8-1.8 2.1 2.1 0 0 0-.6-1.6 3.5 3.5 0 0 0-2.3-.6H194zm0 10.1h3a3.7 3.7 0 0 0 2.3-.7 2.3 2.3 0 0 0 .9-2.1 2.5 2.5 0 0 0-.8-1.8 3.7 3.7 0 0 0-2.3-.6H194zM212.8 25h7.7v19.6h9.6V51h-17.3zm21.8 0H253v5.9h-10.9V35h10.3v5.7h-10.3v4.4h11.6V51h-19.1z"/><path fill="#727272" d="M143 5.5h-1.7v6h-1.4v-6h-1.4V4.4h1.4V2.9a3.6 3.6 0 0 1 .2-1.1 3 3 0 0 1 .4-1l.9-.6 1.2-.2h.8v1.3h-.7l-.7.2a.5.5 0 0 0-.3.3 1.4 1.4 0 0 0-.2.6 1.3 1.3 0 0 0-.1.6v1.4h1.7zm8.4 2.4a3.3 3.3 0 0 1-.3 1.5 2.5 2.5 0 0 1-.8 1.2 3.6 3.6 0 0 1-1.2.8 3.7 3.7 0 0 1-1.5.3l-1.5-.3a3.7 3.7 0 0 1-2-2 3.3 3.3 0 0 1-.3-1.5 4 4 0 0 1 .3-1.5 8.3 8.3 0 0 1 .8-1.2 3.5 3.5 0 0 1 1.2-.7 4 4 0 0 1 1.5-.3 3.7 3.7 0 0 1 1.5.3 3.5 3.5 0 0 1 1.2.7 4.2 4.2 0 0 1 .8 1.2 4 4 0 0 1 .3 1.5zm-1.4 0a2.9 2.9 0 0 0-.2-.9 2.5 2.5 0 0 0-.4-.9l-.8-.5a2.6 2.6 0 0 0-2 0 1.8 1.8 0 0 0-.7.5 2.6 2.6 0 0 0-.5.9 2.9 2.9 0 0 0-.2.9 3 3 0 0 0 .2 1 2.2 2.2 0 0 0 .5.8l.7.6 1 .2 1-.2.8-.6a2 2 0 0 0 .4-.8 3 3 0 0 0 .2-1zm10.5 0a3.3 3.3 0 0 1-.3 1.5 2 2 0 0 1-.8 1.2 3.6 3.6 0 0 1-1.2.8 3.3 3.3 0 0 1-1.5.3l-1.5-.3a3.7 3.7 0 0 1-2-2 3.3 3.3 0 0 1-.3-1.5 4 4 0 0 1 .3-1.5 8.3 8.3 0 0 1 .8-1.2 3.5 3.5 0 0 1 1.2-.7 4 4 0 0 1 1.5-.3 3.3 3.3 0 0 1 1.5.3 3.5 3.5 0 0 1 1.2.7 2.8 2.8 0 0 1 .8 1.2 4 4 0 0 1 .3 1.5zm-1.4 0a2.9 2.9 0 0 0-.2-.9 2.5 2.5 0 0 0-.4-.9l-.8-.5a2.6 2.6 0 0 0-2 0 1.8 1.8 0 0 0-.7.5 2.6 2.6 0 0 0-.5.9 2.9 2.9 0 0 0-.2.9 3 3 0 0 0 .2 1 2.2 2.2 0 0 0 .5.8l.7.6 1 .2 1-.2.8-.6a2 2 0 0 0 .4-.8 3 3 0 0 0 .2-1zm9 2.4a2.1 2.1 0 0 1-1.1 1 3.3 3.3 0 0 1-1.4.4 3.3 3.3 0 0 1-1.5-.3l-1.1-.8a3.7 3.7 0 0 1-.7-1.2 4 4 0 0 1-.3-1.5 3.2 3.2 0 0 1 .3-1.4 2.4 2.4 0 0 1 .7-1.2 2.8 2.8 0 0 1 1.1-.8 3.3 3.3 0 0 1 1.5-.3 2.8 2.8 0 0 1 1.5.4 3.9 3.9 0 0 1 1 .8V.2h1.4v11.3h-1.4v-1.2zm-4.6-2.4a3.4 3.4 0 0 0 .1 1 2.2 2.2 0 0 0 .5.8l.7.6 1 .2 1-.2.7-.6a2.2 2.2 0 0 0 .5-.8 3 3 0 0 0 .2-1 2.9 2.9 0 0 0-.2-.9 4.1 4.1 0 0 0-.5-.9 1.8 1.8 0 0 0-.7-.5 2.6 2.6 0 0 0-2 0 1.8 1.8 0 0 0-.7.5 4.1 4.1 0 0 0-.5.9 2.8 2.8 0 0 0-.1.9z"/><path fill="#ffa218" d="M171.8 7.7a4.3 4.3 0 0 1 .2-1.1l.6-.8.8-.6 1.1-.2 1 .2.8.6a1.6 1.6 0 0 1 .6.8 4.3 4.3 0 0 1 .2 1.1 3.6 3.6 0 0 1-.2 1 1.6 1.6 0 0 1-.6.8 1.6 1.6 0 0 1-.8.6l-1 .2-1.1-.2a1.6 1.6 0 0 1-.8-.6l-.6-.8a3.6 3.6 0 0 1-.2-1z"/><path fill="#727272" d="M180.8 10.3v1.2h-1.4V.2h1.4v5.2h.1a2.7 2.7 0 0 1 1-.8 2.4 2.4 0 0 1 1.5-.4 3.8 3.8 0 0 1 2.6 1.1 3.5 3.5 0 0 1 .7 1.2 3.2 3.2 0 0 1 .2 1.4 3.9 3.9 0 0 1-.2 1.5 7.5 7.5 0 0 1-.7 1.2l-1.1.8-1.5.3a4.2 4.2 0 0 1-1.5-.4 2.6 2.6 0 0 1-1.1-1zm4.7-2.4a2.8 2.8 0 0 0-.1-.9 4.1 4.1 0 0 0-.5-.9 1.8 1.8 0 0 0-.7-.5 2 2 0 0 0-1.1-.2 1.5 1.5 0 0 0-.9.2l-.8.5a4.1 4.1 0 0 0-.5.9 2.8 2.8 0 0 0-.1.9 3.1 3.1 0 0 0 .1 1 2.2 2.2 0 0 0 .5.8l.8.6.9.2 1.1-.2.7-.6a2.2 2.2 0 0 0 .5-.8 3.4 3.4 0 0 0 .1-1zm10 0v.4h-5.6a2.9 2.9 0 0 0 .2.9l.5.7.7.4.9.2a2.1 2.1 0 0 0 1.2-.3 2 2 0 0 0 .8-.8l1 .8a3.3 3.3 0 0 1-1.3 1.1 4.7 4.7 0 0 1-1.7.4 3.3 3.3 0 0 1-1.5-.3 2.5 2.5 0 0 1-1.2-.8 4.4 4.4 0 0 1-.8-1.1 4.1 4.1 0 0 1-.3-1.6 4 4 0 0 1 .3-1.5 8.3 8.3 0 0 1 .8-1.2 3.5 3.5 0 0 1 1.2-.7 3.2 3.2 0 0 1 1.4-.3l1.4.2 1.1.8a4.1 4.1 0 0 1 .7 1.1 7.8 7.8 0 0 1 .2 1.6zm-1.4-.6a2.4 2.4 0 0 0-.2-.8c0-.2-.2-.4-.3-.6l-.6-.4-.9-.2-.8.2-.7.4-.5.6a2.4 2.4 0 0 0-.2.8zm10 .6v.4h-5.7a2.9 2.9 0 0 0 .2.9l.5.7a2 2 0 0 0 .8.4l.8.2a2.8 2.8 0 0 0 1.3-.3 3 3 0 0 0 .8-.8l1 .8a3.6 3.6 0 0 1-1.4 1.1 4.3 4.3 0 0 1-1.7.4l-1.5-.3a2.8 2.8 0 0 1-1.1-.8 2.8 2.8 0 0 1-.8-1.1 4.1 4.1 0 0 1-.3-1.6 4 4 0 0 1 .3-1.5 7.5 7.5 0 0 1 .7-1.2l1.2-.7a3.7 3.7 0 0 1 1.5-.3l1.4.2 1.1.8a3.9 3.9 0 0 1 .6 1.1 4.1 4.1 0 0 1 .3 1.6zm-1.5-.6a2.2 2.2 0 0 0-.1-.8 2.1 2.1 0 0 0-.4-.6.9.9 0 0 0-.6-.4l-.8-.2-.9.2-.7.4-.5.6a2.4 2.4 0 0 0-.2.8zm3.4-2.1v-.8h1.3v1.2h.1a2.2 2.2 0 0 1 .9-1 1.7 1.7 0 0 1 1.2-.4h.6v1.4h-.6a1.5 1.5 0 0 0-.9.2l-.6.5a1.6 1.6 0 0 0-.4.7c0 .3-.1.5-.1.8v3.8h-1.4V5.2z"/><path fill="#ffa218" d="M211.3 7.7a4.3 4.3 0 0 1 .2-1.1 1.6 1.6 0 0 1 .6-.8l.8-.6 1-.2 1.1.2.8.6.6.8a4.3 4.3 0 0 1 .2 1.1 3.6 3.6 0 0 1-.2 1l-.6.8a1.6 1.6 0 0 1-.8.6l-1.1.2-1-.2a1.6 1.6 0 0 1-.8-.6 1.6 1.6 0 0 1-.6-.8 3.6 3.6 0 0 1-.2-1z"/><path fill="#727272" d="M219.4 4.4l1.6 5.4 1.7-5.4h1.5l1.7 5.4 1.6-5.4h1.5l-2.3 7.1h-1.5l-1.7-5.4h-.1l-1.7 5.4h-1.5l-2.3-7.1zm12.7-2.6a.9.9 0 0 1-.3.7l-.7.2-.6-.2a.9.9 0 0 1-.3-.7.9.9 0 0 1 .3-.6.7.7 0 0 1 .6-.3.9.9 0 0 1 .7.3.9.9 0 0 1 .3.6zm-.3 9.7h-1.4V4.4h1.4zm3.7-7.1a1.3 1.3 0 0 1 .1.6v.6h.1c0-.2.2-.4.3-.6l.5-.4.7-.3h.7l1.2.2.8.6a1.9 1.9 0 0 1 .5 1 3.6 3.6 0 0 1 .2 1.1v4.4h-1.4v-4a2.2 2.2 0 0 0-.1-.8 1.9 1.9 0 0 0-.2-.7 1 1 0 0 0-.5-.4 1.1 1.1 0 0 0-.8-.2 1.8 1.8 0 0 0-1.4.6 2.9 2.9 0 0 0-.5 1.7v3.8h-1.4V5.2c0-.3-.1-.6-.1-.8zm14.1 3.5v.4h-5.7a2.9 2.9 0 0 0 .2.9l.5.7a2 2 0 0 0 .8.4l.8.2a2.8 2.8 0 0 0 1.3-.3 3 3 0 0 0 .8-.8l1 .8a3 3 0 0 1-1.4 1.1 4.3 4.3 0 0 1-1.7.4l-1.5-.3a2.8 2.8 0 0 1-1.1-.8 2.8 2.8 0 0 1-.8-1.1 4.1 4.1 0 0 1-.3-1.6 4 4 0 0 1 .3-1.5 7.5 7.5 0 0 1 .7-1.2l1.2-.7a3.7 3.7 0 0 1 1.5-.3l1.4.2 1.1.8a3.9 3.9 0 0 1 .6 1.1 4.1 4.1 0 0 1 .3 1.6zm-1.5-.6a2.2 2.2 0 0 0-.1-.8 2.1 2.1 0 0 0-.4-.6.9.9 0 0 0-.6-.4l-.8-.2-.9.2-.7.4a2.1 2.1 0 0 0-.4.6 2.6 2.6 0 0 0-.3.8z"/><path d="M9 45.6v2.7H2.2v2.4H0v-7.5h2.2v2.4zm-3.6-9.2v2.9H9V42H0v-2.7h3.3v-2.9H0v-2.7h9v2.7zm-5.4-5v-6.3h2v3.7h1.4v-3.5h2v3.5h1.5v-4H9v6.6z"/></svg>