<svg xmlns="http://www.w3.org/2000/svg" width="253.7" height="51" viewBox="0 0 253.7 51"><g id="Layer_2" data-name="Layer 2"><g id="Layer_1-2" data-name="Layer 1"><path d="M42.1,41.5A8.8,8.8,0,0,1,41,46a7.8,7.8,0,0,1-2.8,2.9,10.9,10.9,0,0,1-4,1.6,17.5,17.5,0,0,1-4.6.5H16.5V18.3H29.6a18.4,18.4,0,0,1,3.9.4A14,14,0,0,1,37.1,20a9.2,9.2,0,0,1,2.6,2.6,7.3,7.3,0,0,1,1,4.1,6.8,6.8,0,0,1-1.5,4.5,7.4,7.4,0,0,1-3.8,2.6h0a7.9,7.9,0,0,1,2.6.8,8.3,8.3,0,0,1,2.1,1.6,6.8,6.8,0,0,1,1.4,2.3A6.8,6.8,0,0,1,42.1,41.5Zm-9-13.7a2.8,2.8,0,0,0-1.3-2.5,7.4,7.4,0,0,0-3.7-.7H24.2v6.7h4.2a5.8,5.8,0,0,0,3.5-.9A3.1,3.1,0,0,0,33.1,27.8Zm1.1,13a3.1,3.1,0,0,0-1.6-2.9,9,9,0,0,0-4-.7H24.2v7.4h6.3a4.8,4.8,0,0,0,1.8-.6,3,3,0,0,0,1.3-1.2A2.9,2.9,0,0,0,34.2,40.8Z" transform="translate(-4.7)" fill="#ffa218"/><path d="M44.1,25H55a17,17,0,0,1,4,.4,10,10,0,0,1,3.3,1.4,6.2,6.2,0,0,1,2.3,2.5,8.4,8.4,0,0,1,.8,3.7,8.1,8.1,0,0,1-1.3,4.6,7.4,7.4,0,0,1-3.5,2.8L67,51H58.5l-5-9.2H51.7V51H44.1Zm7.6,11.2h3.8l1.1-.5a3,3,0,0,0,.8-.8,3.3,3.3,0,0,0,.3-1.5,1.9,1.9,0,0,0-1-1.9,4.7,4.7,0,0,0-2.4-.5H51.7Z" transform="translate(-4.7)"/><path d="M69.5,25H87.9v5.9H77V35H87.3v5.7H77v4.4H88.6V51H69.5Z" transform="translate(-4.7)"/><path d="M123.4,51h-7.6l-4.6-16.2h-.1L106.7,51H99.1L91.2,25h8.1l4,16.5h.1L107.5,25h7.7l4.2,16.5h.1l4-16.5h7.9Z" transform="translate(-4.7)"/><path d="M154.8,22V51h-7.9V22h-9.3V15.2H258.3V22Z" transform="translate(-4.7)"/><path d="M169.1,25h8.1L188,51h-8.4l-1.7-4.7h-9.7L166.4,51h-8.2Zm3.9,7.8-3,8h5.9Z" transform="translate(-4.7)"/><path d="M202.3,25a19.7,19.7,0,0,1,3.5.4,8.2,8.2,0,0,1,3,1.1,5.3,5.3,0,0,1,2.1,2.1,6.5,6.5,0,0,1,.7,3.3,5.4,5.4,0,0,1-3.6,5.4h0c3.2.6,4.7,2.6,4.7,6a6.9,6.9,0,0,1-3.2,6,11.5,11.5,0,0,1-3.4,1.3,25.6,25.6,0,0,1-3.9.3H191.1V25Zm-3.6,10.3h2.6a3.2,3.2,0,0,0,2-.6,2.2,2.2,0,0,0,.8-1.8,2.1,2.1,0,0,0-.6-1.6,3.5,3.5,0,0,0-2.3-.6h-2.5Zm0,10.1h3a3.7,3.7,0,0,0,2.3-.7,2.3,2.3,0,0,0,.9-2.1,2.5,2.5,0,0,0-.8-1.8,3.7,3.7,0,0,0-2.3-.6h-3.1Z" transform="translate(-4.7)"/><path d="M217.5,25h7.7V44.6h9.6V51H217.5Z" transform="translate(-4.7)"/><path d="M239.3,25h18.4v5.9H246.8V35h10.3v5.7H246.8v4.4h11.6V51H239.3Z" transform="translate(-4.7)"/><path d="M147.7,5.5H146v6h-1.4v-6h-1.4V4.4h1.4V2.9a3.6,3.6,0,0,1,.2-1.1,3,3,0,0,1,.4-1l.9-.6,1.2-.2h.8V1.3h-.7l-.7.2a.5.5,0,0,0-.3.3,1.4,1.4,0,0,0-.2.6,1.3,1.3,0,0,0-.1.6V4.4h1.7Z" transform="translate(-4.7)" fill="#727272"/><path d="M156.1,7.9a3.3,3.3,0,0,1-.3,1.5,2.5,2.5,0,0,1-.8,1.2,3.6,3.6,0,0,1-1.2.8,3.7,3.7,0,0,1-1.5.3l-1.5-.3a3.7,3.7,0,0,1-2-2,3.3,3.3,0,0,1-.3-1.5,4,4,0,0,1,.3-1.5,8.3,8.3,0,0,1,.8-1.2,3.5,3.5,0,0,1,1.2-.7,4,4,0,0,1,1.5-.3,3.7,3.7,0,0,1,1.5.3,3.5,3.5,0,0,1,1.2.7,4.2,4.2,0,0,1,.8,1.2A4,4,0,0,1,156.1,7.9Zm-1.4,0a2.9,2.9,0,0,0-.2-.9,2.5,2.5,0,0,0-.4-.9l-.8-.5a2.6,2.6,0,0,0-2,0,1.8,1.8,0,0,0-.7.5,2.6,2.6,0,0,0-.5.9,2.9,2.9,0,0,0-.2.9,3,3,0,0,0,.2,1,2.2,2.2,0,0,0,.5.8l.7.6,1,.2,1-.2.8-.6a2,2,0,0,0,.4-.8A3,3,0,0,0,154.7,7.9Z" transform="translate(-4.7)" fill="#727272"/><path d="M165.2,7.9a3.3,3.3,0,0,1-.3,1.5,2,2,0,0,1-.8,1.2,3.6,3.6,0,0,1-1.2.8,3.3,3.3,0,0,1-1.5.3l-1.5-.3a3.7,3.7,0,0,1-2-2,3.3,3.3,0,0,1-.3-1.5,4,4,0,0,1,.3-1.5,8.3,8.3,0,0,1,.8-1.2,3.5,3.5,0,0,1,1.2-.7,4,4,0,0,1,1.5-.3,3.3,3.3,0,0,1,1.5.3,3.5,3.5,0,0,1,1.2.7,2.8,2.8,0,0,1,.8,1.2A4,4,0,0,1,165.2,7.9Zm-1.4,0a2.9,2.9,0,0,0-.2-.9,2.5,2.5,0,0,0-.4-.9l-.8-.5a2.6,2.6,0,0,0-2,0,1.8,1.8,0,0,0-.7.5,2.6,2.6,0,0,0-.5.9,2.9,2.9,0,0,0-.2.9,3,3,0,0,0,.2,1,2.2,2.2,0,0,0,.5.8l.7.6,1,.2,1-.2.8-.6a2,2,0,0,0,.4-.8A3,3,0,0,0,163.8,7.9Z" transform="translate(-4.7)" fill="#727272"/><path d="M172.8,10.3a2.1,2.1,0,0,1-1.1,1,3.3,3.3,0,0,1-1.4.4,3.3,3.3,0,0,1-1.5-.3l-1.1-.8a3.7,3.7,0,0,1-.7-1.2,4,4,0,0,1-.3-1.5,3.2,3.2,0,0,1,.3-1.4,2.4,2.4,0,0,1,.7-1.2,2.8,2.8,0,0,1,1.1-.8,3.3,3.3,0,0,1,1.5-.3,2.8,2.8,0,0,1,1.5.4,3.9,3.9,0,0,1,1,.8h0V.2h1.4V11.5h-1.4V10.3Zm-4.6-2.4a3.4,3.4,0,0,0,.1,1,2.2,2.2,0,0,0,.5.8l.7.6,1,.2,1-.2.7-.6a2.2,2.2,0,0,0,.5-.8,3,3,0,0,0,.2-1,2.9,2.9,0,0,0-.2-.9,4.1,4.1,0,0,0-.5-.9,1.8,1.8,0,0,0-.7-.5,2.6,2.6,0,0,0-2,0,1.8,1.8,0,0,0-.7.5,4.1,4.1,0,0,0-.5.9A2.8,2.8,0,0,0,168.2,7.9Z" transform="translate(-4.7)" fill="#727272"/><path d="M176.5,7.7a4.3,4.3,0,0,1,.2-1.1l.6-.8.8-.6,1.1-.2,1,.2.8.6a1.6,1.6,0,0,1,.6.8,4.3,4.3,0,0,1,.2,1.1,3.6,3.6,0,0,1-.2,1,1.6,1.6,0,0,1-.6.8,1.6,1.6,0,0,1-.8.6l-1,.2-1.1-.2a1.6,1.6,0,0,1-.8-.6l-.6-.8A3.6,3.6,0,0,1,176.5,7.7Z" transform="translate(-4.7)" fill="#ffa218"/><path d="M185.5,10.3v1.2h-1.4V.2h1.4V5.4h.1a2.7,2.7,0,0,1,1-.8,2.4,2.4,0,0,1,1.5-.4,3.8,3.8,0,0,1,2.6,1.1,3.5,3.5,0,0,1,.7,1.2,3.2,3.2,0,0,1,.2,1.4,3.9,3.9,0,0,1-.2,1.5,7.5,7.5,0,0,1-.7,1.2l-1.1.8-1.5.3a4.2,4.2,0,0,1-1.5-.4,2.6,2.6,0,0,1-1.1-1Zm4.7-2.4a2.8,2.8,0,0,0-.1-.9,4.1,4.1,0,0,0-.5-.9,1.8,1.8,0,0,0-.7-.5,2,2,0,0,0-1.1-.2,1.5,1.5,0,0,0-.9.2l-.8.5a4.1,4.1,0,0,0-.5.9,2.8,2.8,0,0,0-.1.9,3.1,3.1,0,0,0,.1,1,2.2,2.2,0,0,0,.5.8l.8.6.9.2,1.1-.2.7-.6a2.2,2.2,0,0,0,.5-.8A3.4,3.4,0,0,0,190.2,7.9Z" transform="translate(-4.7)" fill="#727272"/><path d="M200.2,7.9v.4h-5.6a2.9,2.9,0,0,0,.2.9l.5.7.7.4.9.2a2.1,2.1,0,0,0,1.2-.3,2,2,0,0,0,.8-.8l1,.8a3.3,3.3,0,0,1-1.3,1.1,4.7,4.7,0,0,1-1.7.4,3.3,3.3,0,0,1-1.5-.3,2.5,2.5,0,0,1-1.2-.8,4.4,4.4,0,0,1-.8-1.1,4.1,4.1,0,0,1-.3-1.6,4,4,0,0,1,.3-1.5,8.3,8.3,0,0,1,.8-1.2,3.5,3.5,0,0,1,1.2-.7,3.2,3.2,0,0,1,1.4-.3l1.4.2,1.1.8a4.1,4.1,0,0,1,.7,1.1A7.8,7.8,0,0,1,200.2,7.9Zm-1.4-.6a2.4,2.4,0,0,0-.2-.8c0-.2-.2-.4-.3-.6l-.6-.4-.9-.2-.8.2-.7.4-.5.6a2.4,2.4,0,0,0-.2.8Z" transform="translate(-4.7)" fill="#727272"/><path d="M208.8,7.9v.4h-5.7a2.9,2.9,0,0,0,.2.9l.5.7a2,2,0,0,0,.8.4l.8.2a2.8,2.8,0,0,0,1.3-.3,3,3,0,0,0,.8-.8l1,.8a3.6,3.6,0,0,1-1.4,1.1,4.3,4.3,0,0,1-1.7.4l-1.5-.3a2.8,2.8,0,0,1-1.1-.8,2.8,2.8,0,0,1-.8-1.1,4.1,4.1,0,0,1-.3-1.6,4,4,0,0,1,.3-1.5,7.5,7.5,0,0,1,.7-1.2l1.2-.7a3.7,3.7,0,0,1,1.5-.3l1.4.2,1.1.8a3.9,3.9,0,0,1,.6,1.1A4.1,4.1,0,0,1,208.8,7.9Zm-1.5-.6a2.2,2.2,0,0,0-.1-.8,2.1,2.1,0,0,0-.4-.6.9.9,0,0,0-.6-.4l-.8-.2-.9.2-.7.4-.5.6a2.4,2.4,0,0,0-.2.8Z" transform="translate(-4.7)" fill="#727272"/><path d="M210.7,5.2V4.4H212V5.6h.1a2.2,2.2,0,0,1,.9-1,1.7,1.7,0,0,1,1.2-.4h.6V5.6h-.6a1.5,1.5,0,0,0-.9.2l-.6.5a1.6,1.6,0,0,0-.4.7c0,.3-.1.5-.1.8v3.8h-1.4V5.2Z" transform="translate(-4.7)" fill="#727272"/><path d="M216,7.7a4.3,4.3,0,0,1,.2-1.1,1.6,1.6,0,0,1,.6-.8l.8-.6,1-.2,1.1.2.8.6.6.8a4.3,4.3,0,0,1,.2,1.1,3.6,3.6,0,0,1-.2,1l-.6.8a1.6,1.6,0,0,1-.8.6l-1.1.2-1-.2a1.6,1.6,0,0,1-.8-.6,1.6,1.6,0,0,1-.6-.8A3.6,3.6,0,0,1,216,7.7Z" transform="translate(-4.7)" fill="#ffa218"/><path d="M224.1,4.4l1.6,5.4h0l1.7-5.4h1.5l1.7,5.4h0l1.6-5.4h1.5l-2.3,7.1h-1.5l-1.7-5.4h-.1l-1.7,5.4h-1.5l-2.3-7.1Z" transform="translate(-4.7)" fill="#727272"/><path d="M236.8,1.8a.9.9,0,0,1-.3.7l-.7.2-.6-.2a.9.9,0,0,1-.3-.7.9.9,0,0,1,.3-.6.7.7,0,0,1,.6-.3.9.9,0,0,1,.7.3A.9.9,0,0,1,236.8,1.8Zm-.3,9.7h-1.4V4.4h1.4Z" transform="translate(-4.7)" fill="#727272"/><path d="M240.2,4.4a1.3,1.3,0,0,1,.1.6v.6h.1c0-.2.2-.4.3-.6l.5-.4.7-.3h.7l1.2.2.8.6a1.9,1.9,0,0,1,.5,1,3.6,3.6,0,0,1,.2,1.1v4.4h-1.4v-4a2.2,2.2,0,0,0-.1-.8,1.9,1.9,0,0,0-.2-.7,1,1,0,0,0-.5-.4,1.1,1.1,0,0,0-.8-.2,1.8,1.8,0,0,0-1.4.6,2.9,2.9,0,0,0-.5,1.7v3.8H239V5.2c0-.3-.1-.6-.1-.8Z" transform="translate(-4.7)" fill="#727272"/><path d="M254.3,7.9v.4h-5.7a2.9,2.9,0,0,0,.2.9l.5.7a2,2,0,0,0,.8.4l.8.2a2.8,2.8,0,0,0,1.3-.3,3,3,0,0,0,.8-.8l1,.8a3,3,0,0,1-1.4,1.1,4.3,4.3,0,0,1-1.7.4l-1.5-.3a2.8,2.8,0,0,1-1.1-.8,2.8,2.8,0,0,1-.8-1.1,4.1,4.1,0,0,1-.3-1.6,4,4,0,0,1,.3-1.5,7.5,7.5,0,0,1,.7-1.2l1.2-.7a3.7,3.7,0,0,1,1.5-.3l1.4.2,1.1.8a3.9,3.9,0,0,1,.6,1.1A4.1,4.1,0,0,1,254.3,7.9Zm-1.5-.6a2.2,2.2,0,0,0-.1-.8,2.1,2.1,0,0,0-.4-.6.9.9,0,0,0-.6-.4l-.8-.2-.9.2-.7.4a2.1,2.1,0,0,0-.4.6,2.6,2.6,0,0,0-.3.8Z" transform="translate(-4.7)" fill="#727272"/><path d="M13.7,45.6v2.7H6.9v2.4H4.7V43.2H6.9v2.4Z" transform="translate(-4.7)"/><path d="M10.1,36.4v2.9h3.6V42h-9V39.3H8V36.4H4.7V33.7h9v2.7Z" transform="translate(-4.7)"/><path d="M4.7,31.4V25.1h2v3.7H8.1V25.3h2v3.5h1.5v-4h2.1v6.6Z" transform="translate(-4.7)"/></g></g></svg>