<svg xmlns="http://www.w3.org/2000/svg" width="30" height="30" viewBox="0 0 30 30"><g id="Layer_2" data-name="Layer 2"><g id="Layer_1-2" data-name="Layer 1"><circle cx="15" cy="15" r="15" fill="#ffa218"/><path d="M16.6,18.2a3.4,3.4,0,0,1-.4,1.8,3.2,3.2,0,0,1-1.1,1.2,4.4,4.4,0,0,1-1.6.6l-1.8.2H6.5V9h6.7l1.5.6a3.2,3.2,0,0,1,1,1,2.7,2.7,0,0,1,.4,1.6,2.4,2.4,0,0,1-.6,1.8,3.1,3.1,0,0,1-1.5,1h0l1,.3.9.7a1.9,1.9,0,0,1,.5.9A2,2,0,0,1,16.6,18.2Zm-3.5-5.4a1.1,1.1,0,0,0-.5-1,3.3,3.3,0,0,0-1.5-.3H9.5v2.7h1.7a2,2,0,0,0,1.4-.4A1.2,1.2,0,0,0,13.1,12.8Zm.4,5.1a1.1,1.1,0,0,0-.6-1.1,3.8,3.8,0,0,0-1.6-.3H9.5v3h2.6l.7-.2a1.2,1.2,0,0,0,.5-.5A1.9,1.9,0,0,0,13.5,17.9Z"/><path d="M24.3,11.7V22H21.1V11.7H17.5V9H27.9v2.7Z"/><path d="M5.7,19.9v1H3.2v.9H2.4V19h.8v.9Z"/><path d="M4.4,16.5v1H5.7v1H2.4v-1H3.6v-1H2.4v-1H5.7v1Z"/><path d="M2.4,14.7V12.3h.7v1.4h.6V12.4h.7v1.3H5V12.2h.7v2.5Z"/></g></g></svg>