<svg xmlns="http://www.w3.org/2000/svg" width="30" height="30" viewBox="0 0 30 30"><circle cx="15" cy="15" r="15" fill="#ffa218"/><path d="M16.6 18.2a3.4 3.4 0 0 1-.4 1.8 3.2 3.2 0 0 1-1.1 1.2 4.4 4.4 0 0 1-1.6.6l-1.8.2H6.5V9h6.7l1.5.6a3.2 3.2 0 0 1 1 1 2.7 2.7 0 0 1 .4 1.6 2.4 2.4 0 0 1-.6 1.8 3.1 3.1 0 0 1-1.5 1l1 .3.9.7a1.9 1.9 0 0 1 .5.9 2 2 0 0 1 .2 1.3zm-3.5-5.4a1.1 1.1 0 0 0-.5-1 3.3 3.3 0 0 0-1.5-.3H9.5v2.7h1.7a2 2 0 0 0 1.4-.4 1.2 1.2 0 0 0 .5-1zm.4 5.1a1.1 1.1 0 0 0-.6-1.1 3.8 3.8 0 0 0-1.6-.3H9.5v3h2.6l.7-.2a1.2 1.2 0 0 0 .5-.5 1.9 1.9 0 0 0 .2-.9zm10.8-6.2V22h-3.2V11.7h-3.6V9h10.4v2.7zM5.7 19.9v1H3.2v.9h-.8V19h.8v.9zm-1.3-3.4v1h1.3v1H2.4v-1h1.2v-1H2.4v-1h3.3v1zm-2-1.8v-2.4h.7v1.4h.6v-1.3h.7v1.3H5v-1.5h.7v2.5z"/></svg>