<svg xmlns="http://www.w3.org/2000/svg" width="64" height="64" viewBox="0 0 64 64"><g id="Layer_2" data-name="Layer 2"><g id="Layer_1-2" data-name="Layer 1"><circle cx="32" cy="32" r="32" fill="#ffa218"/><path d="M36.3,36.8a7.5,7.5,0,0,1-.8,3.5,5.8,5.8,0,0,1-2.2,2.2,9.7,9.7,0,0,1-3.1,1.3,19.8,19.8,0,0,1-3.5.3H16.6V18.9H26.7a15.3,15.3,0,0,1,3,.3,13.3,13.3,0,0,1,2.8,1,6.4,6.4,0,0,1,2,2,6.3,6.3,0,0,1,.8,3.2,5.1,5.1,0,0,1-1.2,3.5,5.9,5.9,0,0,1-2.9,1.9h0a8,8,0,0,1,2,.7,6.1,6.1,0,0,1,1.6,1.2,5.4,5.4,0,0,1,1.1,1.8A5.1,5.1,0,0,1,36.3,36.8ZM29.4,26.2a2.1,2.1,0,0,0-1-1.9,6.9,6.9,0,0,0-2.9-.5h-3V29h3.3a5.4,5.4,0,0,0,2.7-.7A2.6,2.6,0,0,0,29.4,26.2Zm.8,10A2.1,2.1,0,0,0,29,34.1a6.5,6.5,0,0,0-3.1-.7H22.5v5.8h4.9l1.4-.4a3.2,3.2,0,0,0,1-1A2.4,2.4,0,0,0,30.2,36.2Z"/><path d="M51.1,24.1v20H45v-20H37.9V18.9H58.3v5.2Z"/><path d="M15.1,40v2H10.3v1.7H8.7V38.3h1.6V40Z"/><path d="M12.6,33.4v2.1h2.5v1.9H8.7V35.5h2.4V33.4H8.7V31.5h6.4v1.9Z"/><path d="M8.7,29.9V25.3h1.4V28h1.1V25.5h1.4V28h1.1V25.2h1.4v4.7Z"/></g></g></svg>