<svg xmlns="http://www.w3.org/2000/svg" width="64" height="64" viewBox="0 0 64 64"><circle cx="32" cy="32" r="32" fill="#ffa218"/><path d="M36.3 36.8a7.5 7.5 0 0 1-.8 3.5 5.8 5.8 0 0 1-2.2 2.2 9.7 9.7 0 0 1-3.1 1.3 19.8 19.8 0 0 1-3.5.3H16.6V18.9h10.1a15.3 15.3 0 0 1 3 .3 13.3 13.3 0 0 1 2.8 1 6.4 6.4 0 0 1 2 2 6.3 6.3 0 0 1 .8 3.2 5.1 5.1 0 0 1-1.2 3.5 5.9 5.9 0 0 1-2.9 1.9 8 8 0 0 1 2 .7 6.1 6.1 0 0 1 1.6 1.2 5.4 5.4 0 0 1 1.1 1.8 5.1 5.1 0 0 1 .4 2.3zm-6.9-10.6a2.1 2.1 0 0 0-1-1.9 6.9 6.9 0 0 0-2.9-.5h-3V29h3.3a5.4 5.4 0 0 0 2.7-.7 2.6 2.6 0 0 0 .9-2.1zm.8 10a2.1 2.1 0 0 0-1.2-2.1 6.5 6.5 0 0 0-3.1-.7h-3.4v5.8h4.9l1.4-.4a3.2 3.2 0 0 0 1-1 2.4 2.4 0 0 0 .4-1.6zm20.9-12.1v20H45v-20h-7.1v-5.2h20.4v5.2zM15.1 40v2h-4.8v1.7H8.7v-5.4h1.6V40zm-2.5-6.6v2.1h2.5v1.9H8.7v-1.9h2.4v-2.1H8.7v-1.9h6.4v1.9zm-3.9-3.5v-4.6h1.4V28h1.1v-2.5h1.4V28h1.1v-2.8h1.4v4.7z"/></svg>